<svg width="65" height="65" viewBox="0 0 65 65" fill="none" xmlns="http://www.w3.org/2000/svg">
<path d="M11.4258 23.1055C7.22478 23.1055 3.80859 19.6893 3.80859 15.4883C3.80859 11.2873 7.22478 7.87109 11.4258 7.87109C15.6268 7.87109 19.043 11.2873 19.043 15.4883C19.043 19.6893 15.6268 23.1055 11.4258 23.1055Z" fill="#49CE5F"/>
<path d="M53.5742 23.1055C49.3732 23.1055 45.957 19.6893 45.957 15.4883C45.957 11.2873 49.3732 7.87109 53.5742 7.87109C57.7752 7.87109 61.1914 11.2873 61.1914 15.4883C61.1914 19.6893 57.7752 23.1055 53.5742 23.1055Z" fill="#49CE5F"/>
<path d="M32.5 19.043C27.2501 19.043 22.9785 14.7714 22.9785 9.52148C22.9785 4.27159 27.2501 0 32.5 0C37.7499 0 42.0215 4.27159 42.0215 9.52148C42.0215 14.7714 37.7499 19.043 32.5 19.043Z" fill="#49CE5F"/>
<path d="M34.4043 19.2355V32.3731C34.4043 33.4257 33.5526 34.2774 32.5 34.2774C31.4474 34.2774 30.5957 33.4257 30.5957 32.3731V19.2355C24.1528 20.1695 19.1699 25.6757 19.1699 32.3731V43.7989C19.1699 44.8514 20.0217 45.7032 21.0742 45.7032H25.3404L26.7946 63.2557C26.8764 64.2412 27.7021 65 28.6914 65H36.3086C37.2979 65 38.1236 64.2412 38.2054 63.2557L39.6596 45.7032H43.9258C44.9783 45.7032 45.8301 44.8514 45.8301 43.7989V32.3731C45.8301 25.6757 40.8472 20.1695 34.4043 19.2355V19.2355Z" fill="#49CE5F"/>
<path d="M15.2344 44.0527V32.627C15.2344 29.7725 16.0024 27.12 17.2416 24.7505C15.5317 23.7298 13.5578 23.1055 11.4258 23.1055C5.12522 23.1055 0 28.2307 0 34.5312V44.0527C0 45.1053 0.851728 45.957 1.9043 45.957H3.98899L5.72216 63.2854C5.8189 64.258 6.63901 65 7.61719 65H15.2344C16.2125 65 17.0327 64.258 17.1294 63.2854L18.5369 49.2135C16.5926 48.3011 15.2344 46.3388 15.2344 44.0527V44.0527Z" fill="#49CE5F"/>
<path d="M65.0001 34.5312C65.0001 28.2307 59.8748 23.1055 53.5743 23.1055C51.4422 23.1055 49.4684 23.7298 47.7584 24.7505C48.9976 27.12 49.7657 29.7725 49.7657 32.627V44.0527C49.7657 46.3388 48.4074 48.3011 46.4631 49.2135L47.8707 63.2854C47.9674 64.258 48.7875 65 49.7657 65H57.3829C58.3611 65 59.1812 64.258 59.2779 63.2854L61.0111 45.957H63.0958C64.1483 45.957 65.0001 45.1053 65.0001 44.0527V34.5312Z" fill="#49CE5F"/>
</svg>
