<svg width="80" height="80" viewBox="0 0 80 80" fill="none" xmlns="http://www.w3.org/2000/svg">
<path d="M53.9325 80H9.17761C5.30058 80 2.14636 76.8458 2.14636 72.9688V10.4688C2.14636 9.17437 3.19574 8.125 4.49011 8.125H58.6201C59.9145 8.125 60.9639 9.17437 60.9639 10.4688V72.9688C60.9637 76.8458 57.8095 80 53.9325 80Z" fill="#DFEEFA"/>
<path d="M58.6199 8.125H31.5551V80H53.9326C57.8096 80 60.9638 76.8458 60.9638 72.9688V10.4688C60.9637 9.17437 59.9144 8.125 58.6199 8.125Z" fill="#C9DFF7"/>
<path d="M12.3864 17.6116C11.092 17.6116 10.0426 16.5622 10.0426 15.2678V2.34375C10.0426 1.04937 11.092 0 12.3864 0C13.6807 0 14.7301 1.04937 14.7301 2.34375V15.2678C14.7301 16.5622 13.6807 17.6116 12.3864 17.6116Z" fill="#606A70"/>
<path d="M21.9846 17.6116C20.6902 17.6116 19.6409 16.5622 19.6409 15.2678V2.34375C19.6409 1.04937 20.6902 0 21.9846 0C23.279 0 24.3284 1.04937 24.3284 2.34375V15.2678C24.3284 16.5622 23.279 17.6116 21.9846 17.6116Z" fill="#606A70"/>
<path d="M31.5551 17.6116C30.2607 17.6116 29.2113 16.5622 29.2113 15.2678V2.34375C29.2113 1.04937 30.2607 0 31.5551 0C32.8494 0 33.8988 1.04937 33.8988 2.34375V15.2678C33.8988 16.5622 32.8494 17.6116 31.5551 17.6116Z" fill="#606A70"/>
<path d="M41.1812 17.6116C39.8868 17.6116 38.8374 16.5622 38.8374 15.2678V2.34375C38.8374 1.04937 39.8868 0 41.1812 0C42.4755 0 43.5249 1.04937 43.5249 2.34375V15.2678C43.5249 16.5622 42.4757 17.6116 41.1812 17.6116Z" fill="#414952"/>
<path d="M50.7797 17.6116C49.4853 17.6116 48.4359 16.5622 48.4359 15.2678V2.34375C48.4359 1.04937 49.4853 0 50.7797 0C52.074 0 53.1234 1.04937 53.1234 2.34375V15.2678C53.1234 16.5622 52.074 17.6116 50.7797 17.6116Z" fill="#414952"/>
<path d="M33.8988 15.2678V2.34375C33.8988 1.04937 32.8494 0 31.5551 0V17.6116C32.8494 17.6116 33.8988 16.5622 33.8988 15.2678Z" fill="#414952"/>
<path d="M31.5829 30.6089H13.8372C12.5428 30.6089 11.4934 29.5595 11.4934 28.2651C11.4934 26.9708 12.5428 25.9214 13.8372 25.9214H31.5829C32.8773 25.9214 33.9267 26.9708 33.9267 28.2651C33.9267 29.5597 32.8773 30.6089 31.5829 30.6089Z" fill="#82A0D2"/>
<path d="M49.2172 39.9839H13.8372C12.5428 39.9839 11.4934 38.9345 11.4934 37.6401C11.4934 36.3458 12.5428 35.2964 13.8372 35.2964H49.2172C50.5115 35.2964 51.5609 36.3458 51.5609 37.6401C51.5609 38.9345 50.5115 39.9839 49.2172 39.9839Z" fill="#82A0D2"/>
<path d="M43.6481 49.3586H13.8372C12.5428 49.3586 11.4934 48.3093 11.4934 47.0149C11.4934 45.7205 12.5428 44.6711 13.8372 44.6711H43.6481C44.9425 44.6711 45.9919 45.7205 45.9919 47.0149C45.9919 48.3093 44.9425 49.3586 43.6481 49.3586Z" fill="#82A0D2"/>
<path d="M35.7886 58.7336H13.8372C12.5428 58.7336 11.4934 57.6843 11.4934 56.3899C11.4934 55.0955 12.5428 54.0461 13.8372 54.0461H35.7886C37.0829 54.0461 38.1323 55.0955 38.1323 56.3899C38.1323 57.6843 37.0829 58.7336 35.7886 58.7336Z" fill="#82A0D2"/>
<path d="M31.5272 68.1084H13.8372C12.5428 68.1084 11.4934 67.059 11.4934 65.7646C11.4934 64.4703 12.5428 63.4209 13.8372 63.4209H31.5272C32.8215 63.4209 33.8709 64.4703 33.8709 65.7646C33.8709 67.059 32.8215 68.1084 31.5272 68.1084Z" fill="#82A0D2"/>
<path d="M33.8708 65.7646C33.8708 64.4703 32.8215 63.4209 31.5271 63.4209V68.1084C32.8215 68.1084 33.8708 67.059 33.8708 65.7646Z" fill="#9EBBDB"/>
<path d="M35.7885 54.0461H31.5271V58.7336H35.7885C37.0829 58.7336 38.1323 57.6843 38.1323 56.3899C38.1323 55.0954 37.0829 54.0461 35.7885 54.0461Z" fill="#5877A6"/>
<path d="M43.648 44.6711H31.5271V49.3586H43.648C44.9424 49.3586 45.9918 48.3093 45.9918 47.0149C45.9918 45.7205 44.9424 44.6711 43.648 44.6711Z" fill="#5877A6"/>
<path d="M49.2171 35.2964H31.5271V39.9839H49.2171C50.5115 39.9839 51.5608 38.9345 51.5608 37.6401C51.5608 36.3458 50.5115 35.2964 49.2171 35.2964Z" fill="#5877A6"/>
<path d="M31.5829 25.9214H31.5271V30.6089H31.5829C32.8773 30.6089 33.9266 29.5595 33.9266 28.2651C33.9266 26.9708 32.8773 25.9214 31.5829 25.9214Z" fill="#5877A6"/>
<path d="M31.5277 68.1088C30.9186 68.1088 30.3189 67.8715 29.8699 67.4223C29.1791 66.7315 28.9892 65.6846 29.3935 64.7951L34.9177 52.6418C35.0367 52.3798 35.2011 52.1459 35.4 51.9484C35.732 51.6187 37.352 49.9963 37.352 49.9963L47.2895 59.9462C47.2895 59.9462 45.6705 61.5652 45.3375 61.8982C45.1414 62.0943 44.9097 62.2565 44.6503 62.3745L32.4969 67.8987C32.1858 68.0401 31.8553 68.1088 31.5277 68.1088Z" fill="#FFEDD6"/>
<path d="M31.5278 68.1088C31.8554 68.1088 32.1859 68.04 32.497 67.8986L44.6504 62.3744C44.9098 62.2566 45.1417 62.0943 45.3376 61.8982C45.6706 61.5652 47.2896 59.9461 47.2896 59.9461L42.3211 54.9714L29.8701 67.4224C30.3193 67.8714 30.9189 68.1088 31.5278 68.1088Z" fill="#FFDAAB"/>
<path d="M35.3942 51.9543L65.8539 21.4951C67.182 20.167 68.9476 19.4355 70.8257 19.4355C72.7039 19.4355 74.4696 20.167 75.7976 21.4951C78.539 24.2365 78.539 28.6971 75.7978 31.4387L45.3379 61.898L35.3942 51.9543Z" fill="#FFE645"/>
<path d="M45.3378 61.8981L75.7976 31.4387C78.539 28.6973 78.5389 24.2365 75.7975 21.4951L40.3662 56.9264L45.3378 61.8981Z" fill="#FFB500"/>
<path d="M62.5382 24.8092L54.8044 32.543L64.748 42.4866L72.4818 34.7528L62.5382 24.8092Z" fill="#606A70"/>
<path d="M67.5103 29.7807L59.7764 37.5146L64.7481 42.4863L72.482 34.7524L67.5103 29.7807Z" fill="#414952"/>
<path d="M75.7973 21.4951C74.4694 20.167 72.7036 19.4355 70.8255 19.4355C68.9473 19.4355 67.1817 20.167 65.8536 21.4951L62.5391 24.8096L72.4828 34.7532L75.7975 31.4387C78.5389 28.6971 78.5387 24.2365 75.7973 21.4951Z" fill="#FF826E"/>
<path d="M72.4828 34.7532L75.7975 31.4387C78.5389 28.6973 78.5388 24.2365 75.7974 21.4951L67.5111 29.7814L72.4828 34.7532Z" fill="#FE5857"/>
<path d="M30.8024 61.6956L29.3935 64.7951C28.9893 65.6845 29.179 66.7313 29.8699 67.4223C30.319 67.8715 30.9186 68.1088 31.5277 68.1088C31.8554 68.1088 32.1858 68.0401 32.4969 67.8987L35.5966 66.4898L30.8024 61.6956Z" fill="#416191"/>
<path d="M31.5277 68.1087C31.8554 68.1087 32.1859 68.04 32.497 67.8986L35.5966 66.4896L33.1998 64.0928L29.8702 67.4225C30.3193 67.8714 30.9188 68.1087 31.5277 68.1087Z" fill="#28415E"/>
</svg>
