<svg width="18" height="18" viewBox="0 0 18 18" fill="none" xmlns="http://www.w3.org/2000/svg">
<g clip-path="url(#clip0)">
<path d="M17.126 5.38988C17.0858 4.46456 16.9385 3.82841 16.7275 3.27717C16.5099 2.69205 16.175 2.16819 15.7362 1.73271C15.3075 1.29044 14.7885 0.946786 14.2192 0.72911C13.6734 0.514756 13.0505 0.36512 12.1396 0.324322C11.2219 0.280069 10.9306 0.269836 8.60313 0.269836C6.27567 0.269836 5.98434 0.280069 5.07008 0.320867C4.15921 0.361665 3.533 0.511433 2.99051 0.725655C2.4144 0.946786 1.89872 1.28699 1.47004 1.73271C1.03469 2.16819 0.696532 2.69551 0.482126 3.27385C0.271122 3.82841 0.123824 4.4611 0.0836635 5.38643C0.0401021 6.31866 0.0300293 6.61461 0.0300293 8.97902C0.0300293 11.3434 0.0401021 11.6394 0.0802623 12.5682C0.120423 13.4935 0.267851 14.1296 0.478856 14.6809C0.696532 15.266 1.03469 15.7898 1.47004 16.2253C1.89872 16.6676 2.4178 17.0113 2.98711 17.2289C3.533 17.4433 4.15581 17.5929 5.0668 17.6337C5.98094 17.6747 6.2724 17.6847 8.59986 17.6847C10.9273 17.6847 11.2186 17.6747 12.1329 17.6337C13.0438 17.5929 13.67 17.4433 14.2125 17.2289C15.3646 16.7764 16.2754 15.8511 16.7209 14.6809C16.9317 14.1263 17.0792 13.4935 17.1193 12.5682C17.1595 11.6394 17.1696 11.3434 17.1696 8.97902C17.1696 6.61461 17.1662 6.31866 17.126 5.38988ZM15.5822 12.5001C15.5454 13.3506 15.4047 13.8099 15.2875 14.1161C14.9995 14.8748 14.4067 15.4769 13.6599 15.7695C13.3585 15.8886 12.9032 16.0314 12.0692 16.0688C11.165 16.1097 10.8938 16.1198 8.60653 16.1198C6.31923 16.1198 6.04465 16.1097 5.14372 16.0688C4.30651 16.0314 3.85441 15.8886 3.55301 15.7695C3.18137 15.63 2.84308 15.4088 2.5685 15.1197C2.28384 14.8373 2.06617 14.4971 1.92881 14.1195C1.8116 13.8134 1.67097 13.3506 1.63422 12.5036C1.59392 11.585 1.58398 11.3094 1.58398 8.9858C1.58398 6.66219 1.59392 6.38325 1.63422 5.46816C1.67097 4.61765 1.8116 4.15838 1.92881 3.8522C2.06617 3.47452 2.28384 3.13099 2.5719 2.85192C2.84975 2.56275 3.18464 2.34162 3.55641 2.20221C3.85781 2.08314 4.31331 1.94028 5.14713 1.90281C6.05132 1.86201 6.32263 1.85178 8.6098 1.85178C10.9005 1.85178 11.1717 1.86201 12.0726 1.90281C12.9098 1.94028 13.3619 2.08314 13.6633 2.20221C14.035 2.34162 14.3733 2.56275 14.6478 2.85192C14.9325 3.13432 15.1502 3.47452 15.2875 3.8522C15.4047 4.15838 15.5454 4.62097 15.5822 5.46816C15.6224 6.3867 15.6325 6.66219 15.6325 8.9858C15.6325 11.3094 15.6224 11.5816 15.5822 12.5001Z" fill="#F5F5F5"/>
<path d="M8.60323 4.50537C6.17203 4.50537 4.19946 6.50911 4.19946 8.97903C4.19946 11.449 6.17203 13.4527 8.60323 13.4527C11.0346 13.4527 13.007 11.449 13.007 8.97903C13.007 6.50911 11.0346 4.50537 8.60323 4.50537ZM8.60323 11.881C7.02599 11.881 5.74661 10.5814 5.74661 8.97903C5.74661 7.37663 7.02599 6.07708 8.60323 6.07708C10.1806 6.07708 11.4598 7.37663 11.4598 8.97903C11.4598 10.5814 10.1806 11.881 8.60323 11.881Z" fill="#F5F5F5"/>
<path d="M14.2094 4.32848C14.2094 4.90524 13.749 5.37288 13.1812 5.37288C12.6134 5.37288 12.1531 4.90524 12.1531 4.32848C12.1531 3.7516 12.6134 3.28409 13.1812 3.28409C13.749 3.28409 14.2094 3.7516 14.2094 4.32848Z" fill="#F5F5F5"/>
</g>
<defs>
<clipPath id="clip0">
<rect y="0.269836" width="17.1429" height="17.415" rx="5" fill="white"/>
</clipPath>
</defs>
</svg>
