<svg width="18" height="19" viewBox="0 0 18 19" fill="none" xmlns="http://www.w3.org/2000/svg">
<g clip-path="url(#clip0)">
<path d="M11.2101 8.78205L7.42288 6.67693C7.20512 6.55589 6.94772 6.5604 6.73428 6.68888C6.5207 6.8175 6.39331 7.0447 6.39331 7.29688V11.471C6.39331 11.722 6.51991 11.9488 6.73205 12.0775C6.84283 12.1447 6.96564 12.1785 7.08871 12.1785C7.20145 12.1785 7.31446 12.1502 7.41843 12.0933L11.2058 10.0245C11.4306 9.90157 11.571 9.66414 11.572 9.40466C11.5729 9.14517 11.4343 8.90668 11.2101 8.78205ZM7.3979 10.9459V7.82621L10.2284 9.39961L7.3979 10.9459Z" fill="#F5F5F5"/>
<path d="M17.0167 6.07916L17.0159 6.07119C17.0014 5.93102 16.8569 4.68421 16.2602 4.05004C15.5706 3.30413 14.7887 3.21352 14.4127 3.17007C14.3816 3.16648 14.3531 3.16316 14.3276 3.15971L14.2976 3.15652C12.0313 2.98911 8.60867 2.96625 8.5744 2.96612L8.57139 2.96599L8.56839 2.96612C8.53412 2.96625 5.1115 2.98911 2.82478 3.15652L2.79457 3.15971C2.77024 3.16303 2.74343 3.16608 2.71427 3.16954C2.34256 3.21312 1.56908 3.30387 0.877464 4.07675C0.309185 4.70414 0.144914 5.92424 0.128043 6.06136L0.126081 6.07916C0.12098 6.13749 0 7.52607 0 8.9201V10.2232C0 11.6173 0.12098 13.0058 0.126081 13.0643L0.126996 13.0731C0.141514 13.211 0.285905 14.435 0.879818 15.0694C1.52827 15.7903 2.34819 15.8857 2.78921 15.937C2.85892 15.9451 2.91895 15.952 2.95989 15.9593L2.99952 15.9649C4.30806 16.0914 8.41078 16.1537 8.58473 16.1562L8.58997 16.1564L8.5952 16.1562C8.62946 16.1561 12.052 16.1332 14.3183 15.9658L14.3482 15.9626C14.3769 15.9588 14.409 15.9553 14.4443 15.9516C14.814 15.9118 15.5833 15.829 16.2653 15.0666C16.8336 14.4391 16.998 13.219 17.0147 13.082L17.0167 13.0642C17.0218 13.0057 17.1429 11.6173 17.1429 10.2232V8.9201C17.1428 7.52607 17.0218 6.13762 17.0167 6.07916ZM16.1382 10.2232C16.1382 11.5135 16.0273 12.8423 16.0168 12.9643C15.9742 13.3003 15.8009 14.0722 15.524 14.378C15.0971 14.8551 14.6586 14.9024 14.3384 14.9368C14.2997 14.9409 14.2639 14.9449 14.2314 14.949C12.0394 15.11 8.746 15.1348 8.59428 15.1357C8.42413 15.1332 4.38143 15.0703 3.11278 14.9506C3.04778 14.9398 2.97754 14.9316 2.90352 14.9231C2.52802 14.8794 2.01402 14.8196 1.61878 14.378L1.60949 14.3679C1.33745 14.0799 1.16912 13.3581 1.12636 12.9682C1.11838 12.876 1.00459 11.5316 1.00459 10.2232V8.9201C1.00459 7.6313 1.11524 6.30397 1.12596 6.17948C1.17684 5.78367 1.35341 5.05849 1.61878 4.76539C2.05875 4.27378 2.52266 4.21931 2.82949 4.1833C2.85879 4.17985 2.88612 4.17666 2.91137 4.17334C5.1353 4.01151 8.45238 3.98746 8.57139 3.98653C8.69041 3.98733 12.0063 4.01151 14.2105 4.17334C14.2376 4.17679 14.2671 4.18025 14.2989 4.18397C14.6145 4.22051 15.0915 4.27578 15.5292 4.75011L15.5333 4.75449C15.8053 5.04241 15.9737 5.77689 16.0164 6.17456C16.024 6.26159 16.1382 7.60898 16.1382 8.9201V10.2232Z" fill="#F5F5F5"/>
</g>
<defs>
<clipPath id="clip0">
<rect width="17.1429" height="17.415" fill="white" transform="translate(0 0.857147)"/>
</clipPath>
</defs>
</svg>
